<?xml version="1.0" standalone="no"?>
<!DOCTYPE svg PUBLIC "-//W3C//DTD SVG 1.1//EN" "http://www.w3.org/Graphics/SVG/1.1/DTD/svg11.dtd" >
<svg xmlns="http://www.w3.org/2000/svg">
<metadata>
This is a custom SVG font generated by IcoMoon.
<iconset grid="16"></iconset>
</metadata>
<defs>
<font id="ui-icon-font-dev-1" horiz-adv-x="512" >
<font-face units-per-em="512" ascent="480" descent="-32" />
<missing-glyph horiz-adv-x="512" />
<glyph class="hidden" unicode="&#xf000;" d="M0,480L 512 -32L0 -32 z" horiz-adv-x="0" />
<glyph unicode="&#xe000;" d="M 147.216,6.576l 192,192L 211.216,198.576 c 0.992,192, 96,194.016, 186.912,193.376c 21.216-0.192 56.736-11.872 75.296-19.36c -45.184,68.8, -124.672,94.624, -181.792,94.624
			c -97.216,0 -204.384-111.84 -206.752-242.976C 84.656,212.24, 84.4,207.92, 86.576,198.576L -12.784,198.576 L 147.216,6.576z" data-tags="arrowturn-1-s" />
<glyph unicode="&#xe001;" d="M 460.64,320l -192-192L 268.64,256 c -192-0.992, -194.016-96, -193.376-186.912c 0.192-21.216 11.872-56.736 19.36-75.296c -68.8,45.184, -94.624,124.672, -94.624,181.792
			c 0,97.216 111.84,204.384 242.976,206.752C 254.976,382.56, 259.296,382.816, 268.64,380.64L 268.64,480 L 460.64,320z" data-tags="arrowturn-1-e" />
<glyph unicode="&#xe002;" d="M 345.424,467.216l -192-192L 281.424,275.216 c -0.992-192, -96-194.016, -186.912-193.376c-21.216,0.192-56.736,11.872-75.296,19.36c 45.184-68.8, 124.672-94.624, 181.792-94.624
			c 97.216,0 204.384,111.84 206.752,242.976C 407.984,261.552, 408.24,265.872, 406.064,275.216L 505.424,275.216 L 345.424,467.216z" data-tags="arrowturn-1-n" />
<glyph unicode="&#xe003;" d="M0,320l 192-192L 192,256 c 192-0.992, 194.016-96, 193.376-186.912c-0.192-21.216-11.872-56.736-19.36-75.296c 68.8,45.184, 94.624,124.672, 94.624,181.792
			c0,97.216-111.84,204.384-242.976,206.752C 205.664,382.56, 201.344,382.816, 192,380.64L 192,480 L0,320z" data-tags="arrowturn-1-w" />
<glyph unicode="&#xe004;" d="M 74.4,313.216L 75.552,42.368L 347.776,43.552L 256.64,133.472L 481.344,361.28L 390.208,451.168L 165.504,223.328 	z" data-tags="arrowthick-1-sw" />
<glyph unicode="&#xe005;" d="M 166.72,42.304L 437.568,43.456L 436.384,315.68L 346.464,224.544L 118.656,449.248L 28.768,358.112L 256.608,133.408 	z" data-tags="arrowthick-1-se" />
<glyph unicode="&#xe006;" d="M 345.312,405.6L 74.496,404.448L 75.68,132.224L 165.6,223.36L 393.376-1.344L 483.296,89.792L 255.456,314.496 	z" data-tags="arrowthick-1-nw" />
<glyph unicode="&#xe007;" d="M 437.632,134.688L 436.48,405.504L 164.256,404.352L 255.392,314.432L 30.688,86.624L 121.824-3.296L 346.528,224.544 	z" data-tags="arrowthick-1-ne" />
<glyph unicode="&#xe008;" d="M 192,416L 0,224.992L 192,32L 192,160L 512,160L 512,288L 192,288 	z" data-tags="arrowthick-1-w" />
<glyph unicode="&#xe009;" d="M 64,160L 255.008-32L 448,160L 320,160L 320,480L 192,480L 192,160 	z" data-tags="arrowthick-1-s" />
<glyph unicode="&#xe00a;" d="M 320,32L 512,223.008L 320,416L 320,288L 0,288L 0,160L 320,160 	z" data-tags="arrowthick-1-e" />
<glyph unicode="&#xe00b;" d="M 448,288L 256.992,480L 64,288L 192,288L 192-32L 320-32L 320,288 	z" data-tags="arrowthick-1-n" />
<glyph unicode="&#xe00c;" d="M 224,57.6L 96,160L 96,82.24L 256-32L 416,82.24L 416,160L 288,57.6L 288,390.4L 416,288L 416,365.728L 256,480L 96,365.728L 96,288L 224,390.4 	z" data-tags="arrow-2-n-s" />
<glyph unicode="&#xe00d;" d="M 422.4,192L 320,64L 397.76,64L 512,224L 397.76,384L 320,384L 422.4,256L 89.6,256L 192,384L 114.272,384L0,224L 114.272,64L 192,64L 89.6,192 	z" data-tags="arrow-2-e-w" />
<glyph unicode="&#xe00e;" d="M 126.4,322.944L 108.288,160L 53.312,215.008L 85.664,416L 279.584,441.248L 334.56,371.712L 171.648,368.192L 406.976,118.304L 425.056,281.184L 480,226.24L 469.312,32.32L 253.792,0L 198.784,54.944L 361.728,73.056 	z" data-tags="arrow-2-nw-se" />
<glyph unicode="&#xe00f;" d="M 406.912,322.944L 425.024,160L 480,215.008L 447.648,416L 253.728,441.248L 198.752,371.712L 361.664,368.192L 126.336,118.304L 108.256,281.184L 53.312,226.24L 64,32.32L 279.52,0L 334.528,54.944L 171.584,73.056 	z" data-tags="arrow-2-ne-sw" />
<glyph unicode="&#xe010;" d="M 115.36,309.664L 147.68,115.712L 341.664,83.36L 396.64,138.336L 233.696,156.448L 396.608,319.328L 351.328,364.608L 188.448,201.696L 170.304,364.64 	z" data-tags="arrow-1-sw" />
<glyph unicode="&#xe011;" d="M 396.64,309.664L 364.32,115.712L 170.336,83.36L 115.36,138.336L 278.304,156.448L 115.392,319.328L 160.672,364.608L 323.552,201.696L 341.696,364.64 	z" data-tags="arrow-1-se" />
<glyph unicode="&#xe012;" d="M 170.336,364.64L 364.288,332.32L 396.64,138.336L 341.664,83.36L 323.552,246.304L 160.672,83.392L 115.392,128.672L 278.304,291.552L 115.36,309.696 	z" data-tags="arrow-1-ne" />
<glyph unicode="&#xe013;" d="M 341.664,364.64L 147.712,332.32L 115.36,138.336L 170.336,83.36L 188.448,246.304L 351.328,83.392L 396.608,128.672L 233.696,291.552L 396.64,309.696 	z" data-tags="arrow-1-nw" />
<glyph unicode="&#xe014;" d="M 210.272,384L 96,224L 210.272,64L 288,64L 185.6,192L 416,192L 416,256L 185.6,256L 288,384 z" data-tags="arrow-1-w" />
<glyph unicode="&#xe015;" d="M 96,178.272L 256,64L 416,178.272L 416,256L 288,153.6L 288,384L 224,384L 224,153.6L 96,256 z" data-tags="arrow-1-s" />
<glyph unicode="&#xe016;" d="M 301.728,64L 416,224L 301.728,384L 224,384L 326.4,256L 96,256L 96,192L 326.4,192L 224,64 z" data-tags="arrow-1-e" />
<glyph unicode="&#xe017;" d="M 416,269.728L 256,384L 96,269.728L 96,192L 224,294.4L 224,64L 288,64L 288,294.4L 416,192 z" data-tags="arrow-1-n" />
<glyph unicode="&#xe018;" d="M 170.496,343.272 L 247.24,415.52 L 63.744,415.52 L 63.744,223.52 L 130.496,303.272 L 213.12,223.36 L 135.536,138.752 L 64,215.504 L 64,32 L 254.096,32 L 175.136,98.752 L 255.36,182.24 L 341.248,103.536 L 264.496,32 L 448,32 L 448,222.096 L 381.248,143.136 L 296.48,224.64 L 375.752,309.248 L 448,232.496 L 448,416 L 256,416 L 335.752,349.248 L 254.24,265.6 L 170.496,343.272 Z" data-tags="arrow-4-diag" />
<glyph unicode="&#xe019;" d="M 254.016,480L 128,352l 96,0 l0-96 L 128,256 L 128,352 L0,221.984L 128,96L 128,192 l 96,0 l0-96 L 128,96 l 130.016-128L 384,96L 288,96 L 288,192 l 96,0 l0-96 l 128,130.016L 384,352l0-96 L 288,256 L 288,352 l 96,0 L 254.016,480z" data-tags="arrow-4" />
<glyph unicode="&#xe01a;" d="M 128,224A128,128 180 1 1 384,224A128,128 180 1 1 128,224z" data-tags="radio-on" />
<glyph unicode="&#xe01b;" d="M 256,352C 185.312,352, 128,294.688, 128,224s 57.312-128, 128-128s 128,57.312, 128,128S 326.688,352, 256,352z M 256,128c-52.928,0-96,43.072-96,96s 43.072,96, 96,96s 96-43.072, 96-96
			S 308.928,128, 256,128z" data-tags="radio-off" />
<glyph unicode="&#xe01c;" d="M 241.568-18.176L 10.656,212.672l 91.84,91.84l 115.456-115.456l 173.152,277.152l 110.176-68.832L 241.568-18.176z" data-tags="check" />
<glyph unicode="&#xe01d;" d="M 239.467,427.989c 9.088-9.152, 23.979-9.152, 33.067,0l 35.648,35.925c 9.067,9.152, 19.221,6.443, 22.528-6.037l 12.949-48.939
	c 3.307-12.48, 16.213-19.925, 28.651-16.533l 48.917,13.269c 12.437,3.392, 19.861-4.032, 16.448-16.491l-13.291-48.853
	c-3.371-12.459, 4.053-25.344, 16.512-28.629l 48.96-12.928c 12.459-3.285, 15.189-13.44, 6.037-22.528l-35.947-35.691
	c-9.152-9.088-9.152-23.979,0-33.067l 35.947-35.691c 9.152-9.109, 6.421-19.243-6.037-22.528l-48.96-12.928
	c-12.459-3.285-19.904-16.192-16.512-28.629l 13.291-48.832c 3.392-12.437-4.011-19.883-16.448-16.491l-48.917,13.269
	c-12.437,3.349-25.344-4.053-28.651-16.533l-12.949-48.96c-3.285-12.48-13.461-15.189-22.528-6.016l-35.648,35.904
	c-9.088,9.173-23.979,9.173-33.067,0l-35.648-35.904c-9.088-9.173-19.221-6.464-22.528,6.016L 168.32,39.083
	c-3.285,12.48-16.171,19.904-28.651,16.533l-48.896-13.269c-12.459-3.371-19.883,4.053-16.469,16.491l 13.291,48.832
	c 3.392,12.437-4.032,25.344-16.512,28.629l-48.96,12.928c-12.48,3.264-15.189,13.419-6.037,22.528l 35.947,35.691
	c 9.152,9.088, 9.152,23.979,0,33.067L 16.085,276.224C 6.933,285.312, 9.643,295.467, 22.123,298.752L 71.083,311.68c 12.459,3.285, 19.904,16.171, 16.512,28.629
	l-13.291,48.853C 70.912,401.621, 78.336,409.045, 90.795,405.653l 48.896-13.269c 12.459-3.392, 25.344,4.053, 28.651,16.533l 12.971,48.939
	c 3.307,12.48, 13.44,15.189, 22.528,6.037L 239.467,427.989z" data-tags="certificate" />
<glyph unicode="&#xe01e;" d="M 437.024,405.024c-100,100-262.080,100-362.048,0c-99.968-99.968-100-262.048,0-362.048c 99.968-99.968, 262.080-99.968, 362.048,0
		C 536.992,142.976, 536.992,305.056, 437.024,405.024z M 414.4,382.4c 23.456-23.488, 40.448-51.008, 51.296-80.288L 406.24,270.080
		c-7.328,23.968-19.68,46.656-38.592,65.568S 326.016,366.944, 302.080,374.24l 32,59.456C 363.36,422.848, 390.912,405.888, 414.4,382.4z M 105.76,270.080
		L 46.336,302.112C 57.184,331.392, 74.112,358.912, 97.6,382.4s 51.008,40.448, 80.288,51.296L 209.92,374.24C 185.984,366.944, 163.232,354.56, 144.32,335.648
		S 113.056,294.016, 105.76,270.080z M 97.6,65.6c-23.488,23.488-40.448,51.040-51.296,80.32l 59.456,32c 7.296-23.936, 19.68-46.656, 38.592-65.568
		s 41.632-31.296, 65.568-38.592l-32.032-59.424C 148.608,25.152, 121.088,42.112, 97.6,65.6z M 166.976,134.976c-49.088,49.088-49.088,128.96,0,178.048
		c 49.12,49.12, 128.992,49.12, 178.080,0c 49.088-49.12, 49.088-128.96,0-178.048S 216.064,85.888, 166.976,134.976z M 302.048,73.76
		c 23.968,7.328, 46.688,19.68, 65.6,38.592s 31.296,41.632, 38.56,65.568l 59.456-32c-10.848-29.28-27.808-56.8-51.296-80.32
		c-23.488-23.456-51.008-40.448-80.288-51.296L 302.048,73.76z" data-tags="help" />
<glyph unicode="&#xe01f;" d="M 324.384,90.048c-26.24-35.104-86.24-80.256-141.504-80.256c-17.504,0-31.008,18.88-31.008,27.040c0,7.328, 2.688,15.456, 8.128,28.96
			l 70.080,167.776c 2.016,5.376, 2.016,9.44-1.376,9.44c-11.424,0-49.184-28.32-60-38.432C 160.64,205.952, 155.264,214.688, 157.984,220.768
			c 36.352,44.48, 99.712,77.504, 135.424,77.504c 14.848,0, 30.976-14.848, 30.976-29.664c0-6.752-4.704-19.52-8.672-29.664l-70.176-165.088
			c-2.656-6.112-1.984-10.144, 2.752-10.144c 9.376,0, 46.496,26.336, 63.328,42.464C 319.648,106.176, 326.464,98.784, 324.384,90.048z M 308.928,351.488
			c-24.992,0-39.808,16.864-39.808,38.432c0,29.664, 22.272,55.936, 53.28,55.936c 22.912,0, 37.728-14.144, 37.728-39.744
			C 360.128,376.448, 339.968,351.488, 308.928,351.488z" data-tags="info-b" />
<glyph unicode="&#xe020;" d="M 256,480C 114.624,480,0,365.376,0,224c0-141.376, 114.624-256, 256-256c 141.376,0, 256,114.624, 256,256C 512,365.376, 397.376,480, 256,480z M 315.008,108.928
			c-22.656-30.272-74.432-69.248-122.112-69.248c-15.104,0-26.752,16.288-26.752,23.328c0,6.336, 2.336,13.344, 7.008,24.992l 60.48,144.8
			C 235.36,237.44, 235.36,240.928, 232.448,240.928c-9.856,0-42.432-24.448-51.776-33.152C 173.696,208.96, 169.056,216.512, 171.392,221.728
			c 31.392,38.4, 86.048,66.88, 116.896,66.88c 12.8,0, 26.72-12.8, 26.72-25.6c0-5.824-4.064-16.864-7.456-25.6l-60.576-142.464
			c-2.304-5.28-1.696-8.768, 2.368-8.768c 8.096,0, 40.128,22.752, 54.656,36.672C 310.944,122.848, 316.8,116.48, 315.008,108.928z M 301.696,334.56
			c-21.568,0-34.336,14.56-34.336,33.152C 267.328,393.312, 286.56,416, 313.312,416c 19.776,0, 32.576-12.224, 32.576-34.304
			C 345.888,356.096, 328.48,334.56, 301.696,334.56z" data-tags="info" />
<glyph unicode="&#xe021;" d="M 181.056,448l 149.888,0 L 293.472,192L 218.528,192 L 181.056,448z M 254.4,10.048c-46.112-1.6-73.152,19.104-73.152,73.152
			c0,41.376, 23.872,68.416, 73.152,73.184c 49.088,4.736, 76.32-25.376, 76.32-76.352C 330.72,27.552, 303.776,11.744, 254.4,10.048z" data-tags="notice" />
<glyph unicode="&#xe022;" d="M 362.496,480L 149.504,480 L0,330.496l0-212.992 L 149.504-32l 212.992,0 L 512,117.504L 512,330.496 L 362.496,480z M 192,416l 128,0 L 288,192L 224,192 L 192,416z M 254.656,42.048
			c-39.36-1.376-62.464,16.288-62.464,62.464c0,35.328, 20.384,58.4, 62.464,62.464c 41.92,4.064, 65.184-21.664, 65.184-65.184
			C 319.808,56.992, 296.8,43.488, 254.656,42.048z" data-tags="stop-sign" />
<glyph unicode="&#xe023;" d="M 256,444L0,0l 512,0 L 256,444z M 256,379.936L 456.64,32L 55.392,32 L 256,379.936zM 210.016,97.984c0,26.016, 15.008,43.008, 46.016,46.016c 30.88,3.008, 48-15.936, 48-48c0-32.992-16.928-42.944-48-44
		C 227.008,51.008, 210.016,64, 210.016,97.984z M 224,320l 64,0 l0-160 L 224,160 L 224,320 z" data-tags="alert-empty" />
<glyph unicode="&#xe024;" d="M 256,444L0,0l 512,0 L 256,444z M 224,320l 64,0 l0-160 L 224,160 L 224,320 z M 256,52C 227.008,51.008, 210.016,64, 210.016,97.984c0,26.016, 15.008,43.008, 46.016,46.016
			c 30.88,3.008, 48-15.936, 48-48C 304,63.008, 287.072,53.056, 256,52z" data-tags="alert" />
<glyph unicode="&#xe025;" d="M 128,416L 448,416L 448,352L 128,352zM 32,256L 416,256L 416,192L 32,192zM 32,96L 352,96L 352,32L 32,32zM0,384L 96,480L 96,288 	z" data-tags="text-indent-decrease" />
<glyph unicode="&#xe026;" d="M 160,416L 480,416L 480,352L 160,352zM 32,256L 416,256L 416,192L 32,192zM 32,96L 352,96L 352,32L 32,32zM 128,384L 32,288L 32,480 	z" data-tags="text-indent-increase" />
<glyph unicode="&#xe027;" d="M 32,416L 480,416L 480,352L 32,352zM 96,256L 480,256L 480,192L 96,192zM 160,96L 480,96L 480,32L 160,32z" data-tags="text-align-right" />
<glyph unicode="&#xe028;" d="M 32,416L 480,416L 480,352L 32,352zM 32,256L 416,256L 416,192L 32,192zM 32,96L 352,96L 352,32L 32,32z" data-tags="text-align-left" />
<glyph unicode="&#xe029;" d="M 32,416L 480,416L 480,352L 32,352zM 32,256L 480,256L 480,192L 32,192zM 32,96L 480,96L 480,32L 32,32z" data-tags="text-align-center" />
<glyph unicode="&#xe02a;" d="M 480,480L 512,480L 512-32L 480-32zM0,480L 32,480L 32-32L0-32zM 96,416L 416,416L 416,352L 96,352zM 96,256L 416,256L 416,192L 96,192zM 96,96L 416,96L 416,32L 96,32z" data-tags="text-align-center-b" />
<glyph unicode="&#xe02b;" d="M 480,480L 512,480L 512-32L 480-32zM 32,416L 416,416L 416,352L 32,352zM 96,256L 416,256L 416,192L 96,192zM 160,96L 416,96L 416,32L 160,32z" data-tags="text-align-right-b" />
<glyph unicode="&#xe02c;" d="M0,480L 32,480L 32-32L0-32zM 96,416L 480,416L 480,352L 96,352zM 96,256L 416,256L 416,192L 96,192zM 96,96L 352,96L 352,32L 96,32z" data-tags="text-align-left-b" />
<glyph unicode="&#xe02d;" d="M 480,64L 313.024,160L 448,160L 305.024,256L 416,256L 297.024,352L 384,352L 257.376,480L 128,352L 217.056,352L 96,256L 209.056,256L 64,160L 201.056,160L 32,64L 224,64L 224-32L 288-32L 288,64 	z" data-tags="pinetree" />
<glyph unicode="&#xe02e;" d="M 154.752,48.896c 14.464,18.592, 21.472,40.128, 22.048,60.832l 71.84,58.784L 416,17.952c 32-28.8, 96-26.88, 96,35.2L 309.792,218.56L 512,384
		c0,62.048-64,64-96,35.2L 248.672,268.608L 175.424,328.512c 4.672,25.92-1.824,55.136-20.672,79.36C 122.176,449.728, 66.176,460.608, 29.664,432.16
		c-36.544-28.416-39.744-85.376-7.168-127.232c 28.64-36.8, 75.36-49.568, 111.072-32.8L 193.056,218.56L 146.592,176.736
		c-36.512,27.552-91.808,16.64-124.096-24.896c-32.608-41.856-29.376-98.816, 7.168-127.232C 66.176-3.808, 122.176,7.072, 154.752,48.896z M 47.744,324.576
		c-20.16,25.888-18.144,61.088, 4.448,78.656C 74.752,420.8, 109.376,414.080, 129.504,388.224c 20.16-25.888, 18.144-61.088-4.448-78.656
		C 102.496,292, 67.872,298.72, 47.744,324.576z M 52.192,53.536c-22.592,17.6-24.608,52.8-4.448,78.688c 20.128,25.856, 54.752,32.576, 77.312,15.008
		c 22.592-17.568, 24.608-52.768, 4.448-78.656C 109.376,42.72, 74.752,35.968, 52.192,53.536z" data-tags="scissors" />
<glyph unicode="&#xe02f;" d="M 384,416l-60.672,0 c0,35.328-28.672,64-64,64s-64-28.672-64-64L 128,416 L 64,416 l0-448 l 384,0 L 448,416 L 384,416 z M 416,0L 96,0 L 96,384 l 32,0 l0-64 l 256,0 L 384,384 l 32,0 L 416,0 z" data-tags="clipboard" />
<glyph unicode="&#xe030;" d="M 97.984,370.048l 131.744,0 L 327.68-32L 216.192-32 l-10.688,70.4L 122.176,38.4 L 111.488-32L0-32 L 97.984,370.048z M 164.416,287.808L 163.296,287.808 l-28.736-170.592l 58.592,0 
			L 164.416,287.808zM 512,288L 384,416L 256,288 	z" data-tags="text-fontsize-increase" />
<glyph unicode="&#xe031;" d="M 82.368,306.048l 110.784,0 L 275.52-32L 181.792-32 L 172.8,27.232L 102.72,27.232 L 93.728-32L0-32 L 82.368,306.048z M 138.24,236.896L 137.28,236.896 l-24.128-143.424l 49.248,0 
			L 138.24,236.896zM 255.968,416L 383.968,288L 511.968,416 	z" data-tags="text-fontsize-decrease" />
<glyph unicode="&#xe032;" d="M 88.096,448l 52.32,0 l 86.816-224L 174.272,224 L 156.704,275.712L 69.888,275.712 L 51.712,224L0,224 L 88.096,448z M 83.232,313.728L 143.36,313.728 L 114.112,390.784L 113.472,390.784 L 83.232,313.728zM 15.744,8.32l 124.544,148.896L 25.504,157.216 L 25.504,200.128 l 182.72,0 l0-40.288 l-124.544-148.928l 127.808,0 L 211.488-32 L 15.744-32 L 15.744,8.32 zM 416,96L 416,480L 352,480L 352,96L 256,96L 384-32L 512,96 	z" data-tags="sort" />
<glyph unicode="&#xe033;" d="M 256,352L 512,352L 512,288L 256,288zM 256,256L 448,256L 448,192L 256,192zM 256,160L 416,160L 416,96L 256,96zM 160,352L 224,352L 130.016,480L 32,352L 96,352L 96,96L 32,96L 126.016-32L 224,96L 160,96 	z" data-tags="text-style-lineheight-decrease" />
<glyph unicode="&#xe034;" d="M 256,384L 512,384L 512,320L 256,320zM 256,256L 448,256L 448,192L 256,192zM 256,128L 416,128L 416,64L 256,64zM 160,352L 224,352L 130.016,480L 32,352L 96,352L 96,96L 32,96L 126.016-32L 224,96L 160,96 	z" data-tags="text-style-lineheight-increase" />
<glyph unicode="&#xe035;" d="M 384,249.632c0-79.264-46.848-117.888-125.28-117.888c-78.848,0-124.864,38.176-124.864,117.888L 133.856,432 l 64.48,0 l0-182.368 
				c0-32.032, 8.224-63.68, 60.384-63.68c 45.984,0, 60.736,20.128, 60.736,63.68L 319.456,432 L 384,432 L 384,249.632 zM 128,64L 384,64L 384,0L 128,0z" data-tags="text-style-underline" />
<glyph unicode="&#xe036;" d="M 111.072-0.32l0,23.808 c 4.384,1.312, 11.616,3.2, 21.696,5.632c 14.24,3.488, 24.864,7.136, 31.872,10.88L 232.928,399.392
			C 232.704,401.6, 231.936,405.152, 230.624,409.984C 221.568,414.176, 206.912,416.8, 186.656,417.92C 181.792,418.144, 177.952,418.464, 175.072,418.912L 174.4,448l 209.216,0 
			C 383.872,443.808, 384,440.288, 384,437.408c0-3.744-0.288-8.608-0.768-14.56c-8.8-3.072-18.912-6.016-30.176-8.768
			c-11.328-2.752-20.608-5.568-27.872-8.416L 260.512,44c0-1.76, 0.672-4.32, 1.984-7.616c 13.344-2.88, 25.504-4.8, 36.48-5.952
			c 2.016-0.256, 8.704-1.12, 20.064-2.624c 0.864-6.624, 1.312-12.128, 1.312-16.576c0-2.432-0.096-6.176-0.32-11.264L 111.072-0.32z" data-tags="text-style-italic" />
<glyph unicode="&#xe037;" d="M 88.448,424.064l 188.288,0 c 76.192,0, 127.712-24.672, 127.712-99.2c0-39.232-19.552-66.688-54.24-83.52c 48.736-14.016, 73.376-51.584, 73.376-101.408
			c0-81.28-68.864-116-141.248-116L 88.448,23.936 L 88.448,424.064 z M 176.448,262.080l 89.088,0 c 30.784,0, 53.792,14.016, 53.792,47.648c0,38.112-29.12,45.952-60.48,45.952
			L 176.448,355.68 L 176.448,262.080 z M 176.448,92.32l 94.176,0 c 34.688,0, 64.96,11.2, 64.96,52.672c0,40.864-25.76,57.152-63.296,57.152L 176.448,202.144 L 176.448,92.32 z" data-tags="text-style-bold" />
<glyph unicode="&#xe038;" d="M 384,224c-70.688,0-128-57.312-128-128s 57.312-128, 128-128s 128,57.312, 128,128S 454.688,224, 384,224z M 288,64l0,64 l 192,0 l0-64 L 288,64 zM 197.92,64L 128,64 l0,32 l 67.008,0 c0,10.944, 1.12,21.568, 2.912,32L 128,128 l0,32 l 78.368,0 c 4.032,11.2, 9.056,21.92, 15.040,32L 128,192 L 128,224 l 117.248,0 
		c 11.328,12.288, 24.256,23.072, 38.496,32L 128,256 L 128,288 l 256,0 l0-3.392 c0,0.096, 5.312,0.416, 8,0.416c 19.488,0, 24-2.976, 56-8.448L 448,480 L 64,480 l0-512 l 181.248,0 
		C 221.024-5.76, 204.192,27.296, 197.92,64z M 128,416l 256,0 l0-32 L 128,384 L 128,416 z M 128,352l 256,0 l0-32 L 128,320 L 128,352 z" data-tags="document-delete" />
<glyph unicode="&#xe039;" d="M 384,224c-70.688,0-128-57.312-128-128s 57.312-128, 128-128s 128,57.312, 128,128S 454.688,224, 384,224z M 416,64l0-64 l-64,0 l0,64 L 288,64 l0,64 l 64,0 L 352,192 l 64,0 l0-64 l 64,0 l0-64 L 416,64 zM 197.92,64L 128,64 l0,32 l 67.008,0 c0,10.944, 1.12,21.568, 2.912,32L 128,128 l0,32 l 78.368,0 c 4.032,11.2, 9.056,21.92, 15.040,32L 128,192 L 128,224 l 117.248,0 
		c 11.328,12.288, 24.256,23.072, 38.496,32L 128,256 L 128,288 l 256,0 l0-3.392 c0,0.096, 5.312,0.416, 8,0.416c 19.488,0, 24-2.976, 56-8.448L 448,480 L 64,480 l0-512 l 181.248,0 
		C 221.024-5.76, 204.192,27.296, 197.92,64z M 128,416l 256,0 l0-32 L 128,384 L 128,416 z M 128,352l 256,0 l0-32 L 128,320 L 128,352 z" data-tags="document-new" />
<glyph unicode="&#xe03a;" d="M0-32l 224,0 L 224,480 L0,480 L0-32 z M 128,448l 64,0 l0-64 L 128,384 L 128,448 z M 128,352l 64,0 l0-64 L 128,288 L 128,352 z M 128,256l 64,0 l0-64 L 128,192 L 128,256 z M 128,160l 64,0 l0-64 L 128,96 L 128,160 z M 32,448l 64,0 l0-64 L 32,384 L 32,448 z M 32,352l 64,0 l0-64 L 32,288 L 32,352 z M 32,256l 64,0 l0-64 L 32,192 L 32,256 z
			 M 32,160l 64,0 l0-64 L 32,96 L 32,160 zM 288,256l0-288 l 64,0 l0,128 l 96,0 l0-128 l 64,0 L 512,256 L 288,256 z M 384,160l-64,0 L 320,224 l 64,0 L 384,160 z M 480,160l-64,0 L 416,224 l 64,0 L 480,160 z" data-tags="company" />
<glyph unicode="&#xe03b;" d="M 257.248,480C 115.168,480,0,364.8,0,222.72c0-142.048, 115.168-257.248, 257.248-257.248c 142.080,0, 257.248,115.2, 257.248,257.248
			C 514.496,364.8, 399.328,480, 257.248,480z M 288,96L 224,96 l0,64 l 64,0 L 288,96 z M 288,224L 224,224 L 192,384l 128,0 L 288,224z" data-tags="circle-alert" />
<glyph unicode="&#xe03c;" d="M 257.248,480C 115.168,480,0,364.8,0,222.72c0-142.048, 115.168-257.248, 257.248-257.248c 142.080,0, 257.248,115.2, 257.248,257.248
			C 514.496,364.8, 399.328,480, 257.248,480z M 384,192L 128,192 L 128,256 l 256,0 L 384,192 z" data-tags="circle-minus" />
<glyph unicode="&#xe03d;" d="M 64,32L 128,32L 128,416L 192,416L 192,32L 256,32L 256,320L 320,320L 320,32L 384,32L 384,256L 448,256L 448,32L 512,32L 512-32L 64-32L0-32L0,32L0,480L 64,480 	z" data-tags="graph-bar-b" />
<glyph unicode="&#xe03e;" d="M 64,32L 64,96L 448,96L 448,160L 64,160L 64,224L 352,224L 352,288L 64,288L 64,352L 288,352L 288,416L 64,416L 64,480L0,480L0,32L0-32L 64-32L 512-32L 512,32 	z" data-tags="graph-bar" />
<glyph unicode="&#xe03f;" d="M 256,480C 114.624,480,0,365.376,0,224c0-141.376, 114.624-256, 256-256c 141.376,0, 256,114.624, 256,256C 512,365.376, 397.376,480, 256,480z M 256,16.512
		c-114.624,0-207.488,92.896-207.488,207.488L 256,224 L 256,431.488 c 114.592,0, 207.488-92.896, 207.488-207.488C 463.488,109.408, 370.592,16.512, 256,16.512z" data-tags="graph-pie-b" />
<glyph unicode="&#xe040;" d="M 288,477.792L 288,256 l 221.792,0 C 495.328,371.744, 403.712,463.328, 288,477.792zM 256,416C 149.952,416, 64,330.048, 64,224c0-106.016, 85.952-192, 192-192c 106.016,0, 192,86.016, 192,192L 256,224 L 256,416 z" data-tags="graph-pie" />
<glyph unicode="&#xe041;" d="M0,480L 224,480L 224,256L0,256zM 288,480L 512,480L 512,256L 288,256zM0,192L 224,192L 224-32L0-32zM 288,192L 512,192L 512-32L 288-32z" data-tags="grid" />
<glyph unicode="&#xe042;" d="M 109.824,142.432c0,36.736, 30.336,66.56, 67.808,66.56c 37.44,0, 67.808-29.824, 67.808-66.56c0-36.768-30.368-66.624-67.808-66.624
		C 140.16,75.808, 109.824,105.664, 109.824,142.432z M 289.248,85.504l 7.616,18.048L 352,117.056L 352,167.808 l-55.136,13.44L 289.248,199.36l 29.632,48.512
		l-33.888,33.28L 235.552,252.064L 215.456,260.288L 200.224,320L 155.008,320 L 139.744,260.192L 119.616,252.064L 70.24,281.152l-33.952-33.28L 65.952,199.36L 58.688,182.144
		L0,167.808l0-50.752 l 58.816-14.496l 7.136-17.056l-29.632-48.512l 33.952-33.312l 49.376,29.056l 17.504-7.104L 151.744-32l 51.68,0 l 14.752,57.76l 17.376,7.008
		l 49.44-29.056l 33.888,33.312L 289.248,85.504zM 357.888,367.008c0,23.36, 19.328,42.368, 43.136,42.368c 23.84,0, 43.2-19.008, 43.2-42.368c0-23.392-19.328-42.368-43.2-42.368
		C 377.184,324.64, 357.888,343.584, 357.888,367.008z M 472.064,330.752l 4.832,11.488L 512,350.88L 512,383.136 l-35.104,8.608l-4.832,11.488l 18.88,30.88
		l-21.6,21.184l-31.424-18.496l-12.768,5.216L 415.392,480l-28.768,0 l-9.696-38.048l-12.8-5.152l-31.424,18.496L 311.136,434.080l 18.848-30.88
		l-4.608-10.944L 288,383.136l0-32.256 l 37.44-9.248l 4.544-10.88L 311.136,299.872l 21.568-21.184l 31.424,18.528l 11.168-4.544L 384.576,256l 32.864,0 l 9.408,36.736
		l 11.072,4.48l 31.424-18.528l 21.6,21.184L 472.064,330.752z" data-tags="cog-set" />
<glyph unicode="&#xe043;" d="M 64,480l0-448 l 352,0 L 416,480 L 64,480 z M 256,128L 128,128 l0,32 l 128,0 L 256,128 z M 352,192L 128,192 L 128,224 l 224,0 L 352,192 z M 352,256L 128,256 L 128,288 l 224,0 L 352,256 z M 352,320L 128,320 L 128,352 l 224,0 L 352,320 z M 352,384L 128,384 L 128,416 l 224,0 L 352,384 zM 448,480L 448,0L 64,0L 64-32L 448-32L 480-32L 480,0L 480,480 	z" data-tags="document-copy" />
<glyph unicode="&#xe044;" d="M0,447.84l0-32 l0-32 L0,32 l 448,0 L 448,319.84 L 96,319.84 L 96,96 L 64,96 L 64,319.84 l0,32 l 32,0 l 352,0 l0,64 L 224,415.84 l0,32 L0,447.84 zM 480,320L 512,320L 512-32L 480-32zM0,0L 512,0L 512-32L0-32z" data-tags="folder-copy" />
<glyph unicode="&#xe045;" d="M 256,467.616L 314.336,288L 503.2,288L 350.4,184.768L 408.768,9.024L 256,122.016L 103.232,12L 161.568,184.288L 8.8,288L 197.664,288 	z" data-tags="star" />
<glyph unicode="&#xe046;" d="M 470.688,434.432c-27.904,26.208-66.368,38.528-111.264,35.616C 295.552,465.92, 266.144,405.472, 256,384C 245.856,405.472, 216.448,465.92, 152.544,470.048
		C 107.68,472.96, 69.216,460.64, 41.312,434.432C 14.656,409.408,0,374.016,0,334.752c0-68.032, 55.648-123.232, 120.128-187.104l 22.4-22.304
		c 39.456-39.68, 87.776-95.872, 113.472-127.136c 25.76,31.264, 74.016,87.424, 113.504,127.136l 22.368,22.304C 456.352,211.52, 512,266.688, 512,334.752
		C 512,374.016, 497.312,409.408, 470.688,434.432z" data-tags="heart" />
<glyph unicode="&#xe047;" d="M 256,480C 114.624,480,0,365.376,0,224c0-141.376, 114.624-256, 256-256c 141.376,0, 256,114.624, 256,256C 512,365.376, 397.376,480, 256,480z M 357.28,87.264L 256,159.488
			l-101.312-74.24l 38.688,124.128L 92.096,288l 125.216,0 L 256,407.072L 294.688,288l 125.216,0 L 318.592,209.024L 357.28,87.264z" data-tags="circle-star" />
<glyph unicode="&#xe048;" d="M 0,224C 0,82.624, 114.624-32, 256-32c 141.376,0, 256,114.624, 256,256c 0,141.376, -114.624,256, -256,256C 114.624,480, 0,365.376, 0,224z M 416,224L 256,64l 0,96 L 96,160 l 0,128 l 160,0 l 0,96 L 416,224z" data-tags="circle-arrow-1-e" />
<glyph unicode="&#xe049;" d="M 256-32C 397.376-32, 512,82.624, 512,224c0,141.376, -114.624,256, -256,256c -141.376,0, -256-114.624, -256-256C 0,82.624, 114.624-32, 256-32z M 256,384L 416,224l -96,0 L 320,64 l -128,0 l0,160 l -96,0 L 256,384z" data-tags="circle-arrow-1-n" />
<glyph unicode="&#xe04a;" d="M 512,224C 512,365.376, 397.376,480, 256,480c-141.376,0, -256-114.624, -256-256c 0-141.376, 114.624-256, 256-256C 397.376-32, 512,82.624, 512,224z M 96,224L 256,384l 0-96 L 416,288 l 0-128 l-160,0 l 0-96 L 96,224z" data-tags="circle-arrow-1-w" />
<glyph unicode="&#xe04b;" d="M 256,480C 114.624,480,0,365.376,0,224c0-141.376, 114.624-256, 256-256c 141.376,0, 256,114.624, 256,256C 512,365.376, 397.376,480, 256,480z M 256,64L 96,224l 96,0 L 192,384 l 128,0 l0-160 l 96,0 L 256,64z" data-tags="circle-arrow-1-s" />
<glyph unicode="&#xe04c;" d="M 256,480C 114.624,480,0,365.376,0,224c0-141.376, 114.624-256, 256-256c 141.376,0, 256,114.624, 256,256C 512,365.376, 397.376,480, 256,480z M 245.344,44.992L 74.656,215.648
			L 142.56,283.52l 85.344-85.344l 128,204.832l 81.44-50.88L 245.344,44.992z" data-tags="circle-check" />
<glyph unicode="&#xe04d;" d="M 384,32L 416,32L 416,64L 448,64L 448,96L 480,96L 512-32L 384,0 	zM 448,128L 416,128L 416,96L 384,96L 384,64L 352,64L 352,32L 96,288L 192,384 	zM 64,320L 160,416L 95.488,480L0,384.512 	z" data-tags="pencil" />
<glyph unicode="&#xe04e;" d="M 256,480C 114.624,480,0,365.376,0,224c0-141.376, 114.624-256, 256-256c 141.376,0, 256,114.624, 256,256C 512,365.376, 397.376,480, 256,480z M 416,128l-64-64l-96,96l-96-96l-64,64
			l 96,96L 96,320l 64,64l 96-96l 96,96l 64-64l-96-96L 416,128z" data-tags="circle-triangle-close" />
<glyph unicode="&#xe04f;" d="M 0,224C 0,82.624, 114.624-32, 256-32c 141.376,0, 256,114.624, 256,256c 0,141.376, -114.624,256, -256,256C 114.624,480, 0,365.376, 0,224z M 352,224L 192,96l 0,256 L 352,224z" data-tags="circle-triangle-1-e" />
<glyph unicode="&#xe050;" d="M 256-32C 397.376-32, 512,82.624, 512,224c0,141.376, -114.624,256, -256,256c -141.376,0, -256-114.624, -256-256C 0,82.624, 114.624-32, 256-32z M 256,320L 384,160l -256,0 L 256,320z" data-tags="circle-triangle-1-n" />
<glyph unicode="&#xe051;" d="M 512,224C 512,365.376, 397.376,480, 256,480c-141.376,0, -256-114.624, -256-256c 0-141.376, 114.624-256, 256-256C 397.376-32, 512,82.624, 512,224z M 160,224L 320,352l 0-256 L 160,224z" data-tags="circle-triangle-1-w" />
<glyph unicode="&#xe052;" d="M 256,480C 114.624,480,0,365.376,0,224c0-141.376, 114.624-256, 256-256c 141.376,0, 256,114.624, 256,256C 512,365.376, 397.376,480, 256,480z M 256,128L 128,288l 256,0 L 256,128z" data-tags="circle-triangle-1-s" />
<glyph unicode="&#xe053;" d="M 480,96L 480,416 L 32,416 l0-320 L0,96 l0-64 l 512,0 l0,64 L 480,96 z M 64,384l 384,0 l0-256 L 64,128 L 64,384 z M 352,64L 160,64 l0,32 l 192,0 L 352,64 z" data-tags="laptop" />
<glyph unicode="&#xe054;" d="M 96,480l0-512 l 320,0 L 416,480 L 96,480 z M 256,0c-17.664,0-32,14.304-32,32s 14.336,32, 32,32s 32-14.304, 32-32S 273.664,0, 256,0z M 384,96L 128,96 L 128,448 l 256,0 L 384,96 z" data-tags="mobile" />
<glyph unicode="&#xe055;" d="M 512,96L 512,416 L0,416 l0-320 l 160,0 l0-32 L 96,64 l0-32 l 320,0 l0,32 l-64,0 l0,32 L 512,96 z M 32,128L 32,384 l 448,0 l0-256 L 32,128 z" data-tags="monitor" />
<glyph unicode="&#xe056;" d="M 256,480C 114.624,480,0,365.408,0,224s 114.624-256, 256-256c 141.376,0, 256,114.624, 256,256S 397.376,480, 256,480z M 288,32L 224,32 l0,64 l 64,0 L 288,32 z M 335.36,230.752L 314.176,205.504
		C 294.56,183.616, 288,169.6, 288,136.416L 288,128 L 224,128 l0,26.432 c0,37.6, 5.504,59.456, 30.72,88.096l 19.296,24.128C 289.728,284.032, 294.304,303.68, 294.304,326.112
		c0,28.64-9.056,47.68-34.304,47.68C 231.392,373.824, 224,348.576, 224,312.096L 224,288 L 128,288 L 128,310.976 C 128,378.304, 171.648,426.56, 245.76,426.56
		c 79.072,0, 121.696-42.656, 121.696-108.288C 367.424,287.392, 362.304,261.632, 335.36,230.752z" data-tags="circle-question" />
<glyph unicode="&#xe057;" d="M 369.088,163.435c-13.717,7.211-26.795-7.189-26.795-7.189l-64.853-41.451l-0.533,0.32c-105.195,82.325-117.611,135.253-133.312,174.485
	L 141.824,293.696l 70.827,55.040c0,0, 17.579,8.341, 14.699,23.595C 224.405,387.499, 212.075,466.347, 135.829,480.555c-36.992-0.427-79.808-53.717-92.331-70.357
	l 1.067-4.779C 43.904,401.28, 43.84,396.309, 45.589,389.568c 9.771-28.8, 10.219-224.533, 247.851-379.371l 0.341-0.64l 5.483-3.136
	c 5.803-3.691, 11.051-7.488, 17.067-11.093c 20.459-13.355, 29.184-22.763, 35.648-23.040L 352.085-32c 0.043,0, 0.064,0, 0.085,0
	c 3.84,0, 6.997,5.781, 11.2,8.64c 25.941,10.539, 73.323,35.584, 82.837,65.685C 454.677,119.445, 382.805,156.245, 369.088,163.435z" data-tags="phone" />
<glyph unicode="&#xe058;" d="M 512,96 L 384,224 L 512,352 L 384,480 L 256,352 L 128,480 L 0,352 L 128,224 L 0,96 L 128-32 L 256,96 L 384-32 L 512,96 Z" data-tags="x, close" />
<glyph unicode="&#xe059;" d="M0,288L 512,288L 512,160L0,160z" data-tags="minus" />
<glyph unicode="&#xe05a;" d="M 192,480 L 192,288 L 0,288 L 0,160 L 192,160 L 192-32 L 320-32 L 320,160 L 512,160 L 512,288 L 320,288 L 320,480 L 192,480 Z" data-tags="plus" />
<glyph unicode="&#xe05b;" d="M 420,324 C 437.792,294.88 448,260.616 448,224 C 448,117.96 362.040,32 256,32 C 219.384,32 185.12,42.208 156,60 L 420,324 ZM 64,224 C 64,330.040 149.96,416 256,416 C 292.616,416 326.872,405.776 356,388 L 92,124 C 74.224,153.128 64,187.384 64,224 ZM 0,224 C 0,82.616 114.616-32 256-32 C 397.384-32 512,82.616 512,224 C 512,365.384 397.384,480 256,480 C 114.616,480 0,365.384 0,224 Z" data-tags="cancel" />
<glyph unicode="&#xe05c;" d="M 0,480 L 0-32 L 512-32 L 512,386 L 416,480 L 384,480 L 384,352 L 96,352 L 96,480 L 0,480 ZM 192,480L 352,480L 352,384L 192,384z" data-tags="disk-b" />
<glyph unicode="&#xe05d;" d="M 0,480 L 0-32 L 512-32 L 512,386 L 416,480 L 384,480 L 384,352 L 96,352 L 96,480 L 0,480 ZM 64,256 L 448,256 L 448,32 L 64,32 L 64,256 ZM 192,480L 352,480L 352,384L 192,384z" data-tags="disk" />
<glyph unicode="&#xe05e;" d="M 64,448 L 129,448 L 173.904,320 L 225,448 L 480,448 L 448,288 L 96,288 L 64,448 ZM 224,164.32 L 224,0 L 320,0 L 320,162.24 C 435.872,176.76 448,256 448,256 L 96,256 C 96,256 109.16,183.176 224,164.32 Z" data-tags="paintbrush" />
<glyph unicode="&#xe05f;" d="M 32,448 L 32,352 L 416,352 L 416,384 L 448,384 L 448,320 L 224,320 L 224,224 L 192,224 L 192,0 L 288,0 L 288,224 L 256,224 L 256,288 L 448,288 L 480,288 L 480,384 L 480,416 L 416,416 L 416,448 L 32,448 Z" data-tags="roller" />
<glyph unicode="&#xe060;" d="M 0-32 L 64-32 L 0,32 L 0-32 ZM 32,64 L 384,416 L 448,352 L 96,0 L 32,64 ZM 416,448 L 480,384 L 512,416 L 448,480 L 416,448 Z" data-tags="pencil" />
<glyph unicode="&#xe061;" d="M 128,96 L 448,96 L 512,352 L 135.040,352 L 96,416 L 0,416 L 0,384 L 56.16,384 L 128,96 ZM 160,16 C 160,42.512 181.488,64 208,64 C 234.512,64 256,42.512 256,16 C 256-10.512 234.512-32 208-32 C 181.488-32 160-10.512 160,16 ZM 352,16 C 352,42.512 373.488,64 400,64 C 426.512,64 448,42.512 448,16 C 448-10.512 426.512-32 400-32 C 373.488-32 352-10.512 352,16 Z" data-tags="cart" />
<glyph unicode="&#xe062;" d="M 192,288 L 192,0 L 512,0 L 512,288 L 287.2,288 C 287.712,293.256 288,298.592 288,304 C 288,383.528 230.696,448 160,448 C 89.304,448 32,383.528 32,304 C 32,298.592 32.288,293.256 32.8,288 L 97.28,288 C 96.44,293.168 96,298.52 96,304 C 96,348.184 124.656,384 160,384 C 195.344,384 224,348.184 224,304 C 224,298.52 223.56,293.168 222.72,288 L 192,288 Z" data-tags="unlock" />
<glyph unicode="&#xe063;" d="M 318.72,288 L 193.28,288 C 192.44,293.168 192,298.52 192,304 C 192,348.184 220.656,384 256,384 C 291.344,384 320,348.184 320,304 C 320,298.52 319.56,293.168 318.72,288 ZM 96,288 L 96,0 L 416,0 L 416,288 L 383.2,288 C 383.712,293.256 384,298.592 384,304 C 384,383.528 326.696,448 256,448 C 185.304,448 128,383.528 128,304 C 128,298.592 128.288,293.256 128.8,288 L 96,288 Z" data-tags="lock" />
<glyph unicode="&#xe064;" d="M 64,384L 448,384L 448,320L 64,320zM 64,256L 448,256L 448,192L 64,192zM 64,128L 448,128L 448,64L 64,64z" data-tags="menu" />
<glyph unicode="&#xe065;" d="M 212.48,409.92 C 201.064,413.84 188.744,416 176,416 C 115.912,416 66.92,368.688 64.16,309.28 C 26.256,291.328 0,252.728 0,208 C 0,161.392 28.464,121.504 68.96,104.64 L 64,96 L 112,96 L 400,96 L 448,96 L 445.92,105.76 C 484.856,123.304 512,162.52 512,208 C 512,241.808 496.96,272.104 473.28,292.64 C 477.6,306.328 480,320.896 480,336 C 480,415.528 415.528,480 336,480 C 283.504,480 237.648,451.888 212.48,409.92 Z" data-tags="cloud" />
<glyph unicode="&#xe066;" d="M 96,320L 288,320L 288,256L 96,256L 96,320 Z M 192,480C 298.040,480 384,394.040 384,288C 384,251.384 373.744,217.16 355.96,188.040L 512,32L 448-32L 291.96,124.040C 262.84,106.256 228.616,96 192,96C 85.96,96 0,181.96 0,288C 0,394.040 85.96,480 192,480 Z M 192,450.464C 102.272,450.464 29.536,377.728 29.536,288C 29.536,198.272 102.272,125.536 192,125.536C 281.728,125.536 354.464,198.272 354.464,288C 354.464,377.728 281.728,450.464 192,450.464 Z " data-tags="zoom-out" />
<glyph unicode="&#xe067;" d="M 160,384L 224,384L 224,320L 288,320L 288,256L 224,256L 224,192L 160,192L 160,256L 96,256L 96,320L 160,320L 160,384 Z M 192,480C 298.040,480 384,394.040 384,288C 384,251.384 373.744,217.16 355.96,188.040L 512,32L 448-32L 291.96,124.040C 262.84,106.256 228.616,96 192,96C 85.96,96 0,181.96 0,288C 0,394.040 85.96,480 192,480 Z M 192,450.464C 102.272,450.464 29.536,377.728 29.536,288C 29.536,198.272 102.272,125.536 192,125.536C 281.728,125.536 354.464,198.272 354.464,288C 354.464,377.728 281.728,450.464 192,450.464 Z " data-tags="zoom-in" />
<glyph unicode="&#xe068;" d="M 255.984,480L 316.44,284.984L 512,284.984L 353.76,163.712L 414.184-31.696L 255.984,88.632L 97.776-32L 158.2,163.744L 0,284.984L 195.56,284.984L 255.984,480 Z " data-tags="star" />
<glyph unicode="&#xe069;" d="M 0,480L 64,480L 64-32L 0-32L 0,480 Z M 96,480L 512,320L 96,160L 160,320L 96,480 Z " data-tags="flag-b" />
<glyph unicode="&#xe06a;" d="M 0,480L 64,480L 64-32L 0-32L 0,480 Z M 512,448L 512,192L 288,192L 256,224L 96,224L 96,480L 352,480L 384,448L 512,448 Z " data-tags="flag" />
<glyph unicode="&#xe06b;" d="M 256,480C 397.384,480 512,365.384 512,224C 512,82.616 397.384-32 256-32C 114.616-32 0,82.616 0,224C 0,365.384 114.616,480 256,480 Z M 256,416C 149.96,416 64,330.040 64,224C 64,117.96 149.96,32 256,32C 362.040,32 448,117.96 448,224C 448,330.040 362.040,416 256,416 Z M 224,352L 256,352L 256,224L 352,224L 352,192L 256,192L 224,192L 224,224L 224,352 Z " data-tags="clock" />
<glyph unicode="&#xe06c;" d="M 128,480L 384,480L 384-32L 256.664,128L 128-32L 128,480 Z " data-tags="bookmark" />
<glyph unicode="&#xe06d;" d="M 414.080,141.92 L 424.8,168 L 502.856,187.424 L 502.856,260.576 L 424.8,280 L 414.080,306.080 L 456,376 L 408,424 L 338.080,382.080 L 309.6,393.92 L 288,480 L 224,480 L 202.4,393.76 L 173.92,382.080 L 104,424 L 56,376 L 97.92,306.080 L 87.68,281.28 L 4.576,260.576 L 4.576,187.424 L 87.84,166.56 L 97.92,141.92 L 56,72 L 104,24 L 173.92,65.92 L 198.72,55.68 L 219.424-27.424 L 292.576-27.424 L 313.44,55.84 L 338.080,65.92 L 408,24 L 456,72 L 414.080,141.92 ZM 160,224 C 160,277.024 202.976,320 256,320 C 309.024,320 352,277.024 352,224 C 352,170.976 309.024,128 256,128 C 202.976,128 160,170.976 160,224 Z" data-tags="gear, cog" />
<glyph unicode="&#xe06e;" d="M 224,336 C 224,312.736 229.552,290.8 239.36,271.36 L 0,32 L 64-32 L 303.36,207.36 C 322.808,197.568 344.736,192 368,192 C 447.528,192 512,256.472 512,336 C 512,350.136 510.040,363.728 506.24,376.64 L 440,294 L 345,294 L 345,392 L 410.72,473.6 C 397.2,477.8 382.896,480 368,480 C 288.472,480 224,415.528 224,336 Z" data-tags="wrench" />
<glyph unicode="&#xe06f;" d="M 128,384 L 64,448 L 32,416 L 96,352 L 128,384 ZM 96,288 L 0,288 L 0,256 L 96,256 L 96,288 ZM 192,480 L 192,384 L 224,384 L 224,480 L 192,480 ZM 384,64 L 448,0 L 480,32 L 416,96 L 384,64 ZM 416,160 L 512,160 L 512,192 L 416,192 L 416,160 ZM 320-32 L 320,64 L 288,64 L 288-32 L 320-32 ZM 240.76,272.96 C 251.080,283.248 260.92,292.896 270.48,302.816 C 271.744,304.128 272.456,307.088 271.92,308.824 C 267.968,321.696 270.008,333.2 279.24,343.096 C 285,349.28 291.072,355.176 297.056,361.144 C 318.672,382.688 340.016,404.52 362.048,425.632 C 375.552,438.56 394.864,437.496 408.064,424.32 L 455.664,376.76 C 470.352,362.072 470.432,342.528 455.84,327.936 L 377.088,249.136 C 366.528,238.488 354.496,235.496 340.336,240.208 C 339.024,240.648 336.784,240.704 335.968,239.912 L 304.84,208.976 L 310.080,205.136 C 340.224,185.688 380.576,189.344 406.16,214.448 C 434.384,242.136 462.392,270.032 490.024,298.296 C 519.4,328.344 519.256,376.272 490.016,406.296 C 473.088,423.68 455.896,440.816 438.528,457.768 C 409.264,486.336 362.32,487.76 332.624,459.776 C 303.6,432.432 275.816,403.76 247.632,375.528 C 235.328,363.2 227.784,348.272 225.552,330.92 C 222.832,309.776 227.72,290.536 240.76,272.96 ZM 206.8,238.576 C 181.184,261.344 134.576,260.576 108.864,236.12 C 79.712,208.384 51.52,179.624 23.088,151.136 C -9.232,118.744 -6.928,67.608 25.648,37.4 C 41.808,22.408 56.872,6.24 72.56-9.264 C 103.296-39.648 151.984-39.568 182.616-9.080 C 209.848,18.016 237.088,45.112 264.104,72.416 C 283.648,92.16 290.376,116.088 285.4,143.216 C 283.28,154.8 278.624,165.44 270.72,174.952 L 241.44,145.72 C 239.184,143.512 238.744,141.744 239.784,138.616 C 244.080,125.656 241.712,113.952 231.92,104.144 L 151.184,23.44 C 137.528,9.816 117.52,9.776 103.928,23.328 L 55.952,71.264 C 41.52,85.704 41.44,105.312 55.8,119.664 C 82.048,145.928 108.416,172.064 134.528,198.464 C 145.224,209.28 157.36,212.376 171.728,207.552 C 173.088,207.096 175.456,207.488 176.432,208.432 L 206.8,238.576 Z" data-tags="unlink" />
<glyph unicode="&#xe070;" d="M 206.8,238.576 C 196.528,228.32 186.576,218.28 176.432,208.432 C 175.456,207.488 173.088,207.096 171.728,207.552 C 157.36,212.376 145.224,209.28 134.528,198.464 C 108.416,172.064 82.048,145.928 55.8,119.664 C 41.44,105.312 41.52,85.704 55.952,71.264 C 71.936,55.28 87.912,39.28 103.928,23.328 C 117.52,9.776 137.528,9.816 151.184,23.44 C 178.128,50.32 205.040,77.208 231.92,104.144 C 241.712,113.952 244.080,125.656 239.784,138.616 C 238.744,141.744 239.184,143.512 241.44,145.72 C 251.16,155.224 260.696,164.904 270.72,174.952 C 278.624,165.44 283.28,154.8 285.4,143.216 C 290.376,116.088 283.648,92.16 264.104,72.416 C 237.088,45.112 209.848,18.016 182.616-9.080 C 151.984-39.568 103.296-39.648 72.56-9.264 C 56.872,6.24 41.808,22.408 25.648,37.4 C -6.928,67.608 -9.232,118.744 23.088,151.136 C 51.52,179.624 79.712,208.384 108.864,236.12 C 134.576,260.576 181.184,261.344 206.8,238.576 ZM 240.76,272.96 C 227.72,290.536 222.832,309.776 225.552,330.92 C 227.784,348.272 235.328,363.2 247.632,375.528 C 275.816,403.76 303.6,432.432 332.624,459.776 C 362.32,487.76 409.264,486.336 438.528,457.768 C 455.896,440.816 473.088,423.68 490.016,406.296 C 519.256,376.272 519.4,328.344 490.024,298.296 C 462.392,270.032 434.384,242.136 406.16,214.448 C 380.576,189.344 340.224,185.688 310.080,205.136 C 308.4,206.216 306.848,207.496 304.84,208.976 C 315.384,219.512 325.584,229.808 335.968,239.912 C 336.784,240.704 339.024,240.648 340.336,240.208 C 354.496,235.496 366.528,238.488 377.088,249.136 C 403.232,275.512 429.584,301.68 455.84,327.936 C 470.432,342.528 470.352,362.072 455.664,376.76 C 439.808,392.616 423.952,408.48 408.064,424.32 C 394.864,437.496 375.552,438.56 362.048,425.632 C 340.016,404.52 318.672,382.688 297.056,361.144 C 291.072,355.176 285,349.28 279.24,343.096 C 270.008,333.2 267.968,321.696 271.92,308.824 C 272.456,307.088 271.744,304.128 270.48,302.816 C 260.92,292.896 251.080,283.248 240.76,272.96 ZM 358.328,303.6 C 357.84,297.648 355.8,291.92 351.136,287.264 C 298.24,234.408 245.376,181.512 192.432,128.704 C 183.36,119.648 169.36,119.288 160.592,127.488 C 151.912,135.6 151.32,149 159.264,158.888 C 160.752,160.744 162.368,162.52 164.048,164.2 C 214.592,214.744 265.152,265.256 315.68,315.808 C 322.152,322.288 329.256,327.16 338.968,325.888 C 350.376,324.384 358.136,315.528 358.328,303.6 Z" data-tags="link" />
<glyph unicode="&#xe071;" d="M 352,416 C 352,433.672 366.328,448 384,448 C 401.672,448 416,433.672 416,416 C 416,398.328 401.672,384 384,384 C 366.328,384 352,398.328 352,416 ZM 448,480 L 287,480 L -2,190 L 160,31 L 448,320 L 448,480 ZM 193-1 L 480.072,287.424 L 480,480 L 512,480 L 512,255.152 L 225-33 L 193-1 Z" data-tags="tags" />
<glyph unicode="&#xe072;" d="M 416,416 C 416,433.672 430.328,448 448,448 C 465.672,448 480,433.672 480,416 C 480,398.328 465.672,384 448,384 C 430.328,384 416,398.328 416,416 ZM 512,480 L 351,480 L 0,127 L 160-32 L 512,320 L 512,480 Z" data-tags="tag" />
<glyph unicode="&#xe073;" d="M 96,320 L 416,320 L 416-32 L 96-32 L 96,320 ZM 288,448 L 288,416 L 224,416 L 224,448 L 288,448 ZM 32,416 L 32,352 L 480,352 L 480,416 L 320,416 L 320,448 L 320,480 L 192,480 L 192,448 L 192,416 L 32,416 Z" data-tags="trash" />
<glyph unicode="&#xe074;" d="M 128,320 C 128,390.696 185.304,448 256,448 C 326.696,448 384,390.696 384,320 C 384,249.304 326.696,192 256,192 C 185.304,192 128,249.304 128,320 ZM 480-32 C 480-1.6 388.912,160 256,160 C 123.088,160 31.576-1.6 31.576-32 C 49.64-33.552 461.936-33.552 480-32 Z" data-tags="person" />
<glyph unicode="&#xe075;" d="M 320,256 L 384,256 L 384,32 L 320,32 L 320,256 ZM 320,288 L 192,288 L 192,352 L 320,352 L 320,288 ZM 32,288 L 32,0 L 480,0 L 480,288 L 384,288 L 384,416 L 128,416 L 128,288 L 32,288 ZM 128,256 L 192,256 L 192,32 L 128,32 L 128,256 Z" data-tags="suitcase" />
<glyph unicode="&#xe076;" d="M 480,448 L 256,448 L 336,368 L 96,128 L 160,64 L 400,304 L 480,224 L 480,448 ZM 32,352 L 32,320 L 32,32 L 32,0 L 64,0 L 384,0 L 416,0 L 416,32 L 416,192 L 384,192 L 384,32 L 64,32 L 64,320 L 224,320 L 224,352 L 64,352 L 32,352 Z" data-tags="extlink" />
<glyph unicode="&#xe077;" d="M 320,448 L 352,448 L 352,416 L 320,416 L 320,448 ZM 448,448 L 480,448 L 480,416 L 448,416 L 448,448 ZM 64,480 L 64,384 L 32,384 L 0,384 L 0,288 L 0,0 L 0-32 L 32-32 L 416-32 L 448-32 L 448,0 L 448,64 L 512,64 L 512,480 L 64,480 ZM 64,288 L 64,64 L 416,64 L 416,0 L 32,0 L 32,288 L 64,288 ZM 96,384 L 480,384 L 480,96 L 448,96 L 416,96 L 96,96 L 96,288 L 96,384 ZM 384,448 L 416,448 L 416,416 L 384,416 L 384,448 Z" data-tags="newwin, window-new" />
<glyph unicode="&#xe078;" d="M 416,416 L 448,416 L 448,384 L 416,384 L 416,416 ZM 288,416 L 320,416 L 320,384 L 288,384 L 288,416 ZM 32,448 L 32,32 L 480,32 L 480,448 L 32,448 ZM 64,352 L 448,352 L 448,64 L 64,64 L 64,352 ZM 352,416 L 384,416 L 384,384 L 352,384 L 352,416 ZM 352,320 L 295.2,263.2 L 238.352,320 L 192,273.648 L 248.8,216.8 L 192,160 L 238.352,113.648 L 295.2,170.4 L 352,113.648 L 398.352,160 L 341.6,216.8 L 398.352,273.648 L 352,320 Z" data-tags="window-close" />
<glyph unicode="&#xe079;" d="M 416,416 L 448,416 L 448,384 L 416,384 L 416,416 ZM 288,416 L 320,416 L 320,384 L 288,384 L 288,416 ZM 32,448 L 32,32 L 480,32 L 480,448 L 32,448 ZM 64,352 L 448,352 L 448,64 L 64,64 L 64,352 ZM 352,416 L 384,416 L 384,384 L 352,384 L 352,416 Z" data-tags="window" />
<glyph unicode="&#xe07a;" d="M 360,180.92 C 360,221.296 334.328,255.92 297.6,271.112 L 297.6,136.616 L 87,317.536 L 297.6,496 L 297.6,373.904 C 392.544,355.664 464,276.192 464,180.92 C 464,72.16 370.88-16 256-16 C 141.12-16 48,72.16 48,180.92 C 48,179.696 152.208,176 152.208,176 C 154.92,123.912 200.304,82.464 256,82.464 C 261.096,82.464 266.080,82.776 270.976,83.448 L 297.6,90.736 C 334.32,105.936 360,140.56 360,180.92 Z" data-tags="arrowrefresh-w" />
<glyph unicode="&#xe07b;" d="M 196.92,312 C 237.296,312 271.92,286.328 287.112,249.6 L 152.616,249.6 L 333.536,39 L 512,249.6 L 389.904,249.6 C 371.664,344.544 292.192,416 196.92,416 C 88.16,416 0,322.88 0,208 C 0,93.12 88.16,0 196.92,0 C 195.696,0 192,104.208 192,104.208 C 139.912,106.92 98.464,152.304 98.464,208 C 98.464,213.096 98.776,218.080 99.448,222.976 L 106.736,249.6 C 121.936,286.32 156.56,312 196.92,312 Z" data-tags="arrowrefresh-s" />
<glyph unicode="&#xe07c;" d="M 152,180.92 C 152,221.296 177.672,255.92 214.4,271.112 L 214.4,136.616 L 425,317.536 L 214.4,496 L 214.4,373.904 C 119.456,355.664 48,276.192 48,180.92 C 48,72.16 141.12-16 256-16 C 370.88-16 464,72.16 464,180.92 C 464,179.696 359.792,176 359.792,176 C 357.080,123.912 311.696,82.464 256,82.464 C 250.904,82.464 245.92,82.776 241.024,83.448 L 214.4,90.736 C 177.68,105.936 152,140.56 152,180.92 Z" data-tags="arrowrefresh-e" />
<glyph unicode="&#xe07d;" d="M 315.080,104 C 274.704,104 240.080,129.672 224.888,166.4 L 359.384,166.4 L 178.464,377 L 0,166.4 L 122.096,166.4 C 140.336,71.456 219.808,0 315.080,0 C 423.84,0 512,93.12 512,208 C 512,322.88 423.84,416 315.080,416 C 316.304,416 320,311.792 320,311.792 C 372.088,309.080 413.536,263.696 413.536,208 C 413.536,202.904 413.224,197.92 412.552,193.024 L 405.264,166.4 C 390.064,129.68 355.44,104 315.080,104 Z" data-tags="arrowrefresh-n" />
<glyph unicode="&#xe07e;" d="M 512,320 L 320,128 L 320,256 C 78,256 126,160 126.648,69.104 C 126.8,47.88 138.512,12.336 146.008-6.192 C 77.168,38.984 32,119.904 32,177 C 32,274.208 163.216,379.968 294.352,382.344 C 306.352,382.568 310.656,382.824 320,380.64 L 320,480 L 512,320 Z" data-tags="arrowturn-e" />
<glyph unicode="&#xe07f;" d="M 188.904-3.096 L 380.904,188.904 L 252.904,188.904 C 252.904,430.904 348.904,382.904 439.8,382.256 C 461.024,382.104 496.568,370.392 515.096,362.896 C 469.92,431.736 389,476.904 331.904,476.904 C 234.696,476.904 128.936,345.688 126.56,214.552 C 126.336,202.552 126.080,198.248 128.264,188.904 L 28.904,188.904 L 188.904-3.096 Z" data-tags="arrowturn-s" />
<glyph unicode="&#xe080;" d="M 188.904,476.904 L 380.904,284.904 L 252.904,284.904 C 252.904,42.904 348.904,90.904 439.8,91.552 C 461.024,91.704 496.568,103.416 515.096,110.912 C 469.92,42.072 389-3.096 331.904-3.096 C 234.696-3.096 128.936,128.12 126.56,259.256 C 126.336,271.256 126.080,275.56 128.264,284.904 L 28.904,284.904 L 188.904,476.904 Z" data-tags="arrowturn-n" />
<glyph unicode="&#xe081;" d="M 32,320 L 224,128 L 224,256 C 466,256 418,160 417.352,69.104 C 417.2,47.88 405.488,12.336 397.992-6.192 C 466.832,38.984 512,119.904 512,177 C 512,274.208 380.784,379.968 249.648,382.344 C 237.648,382.568 233.344,382.824 224,380.64 L 224,480 L 32,320 Z" data-tags="arrowturn-w" />
<glyph unicode="&#xe082;" d="M 256,160 L 512,160 L 512,288 L 256,288 L 256,416 L 64,222 L 256,32 L 256,160 ZM 0,32L 0,416L 32,416L 32,32z" data-tags="arrowstop-1-w" />
<glyph unicode="&#xe083;" d="M 192,224 L 192,480 L 320,480 L 320,224 L 448,224 L 254,32 L 64,224 L 192,224 ZM 64-32L 448-32L 448,0L 64,0z" data-tags="arrowstop-1-s" />
<glyph unicode="&#xe084;" d="M 256,288 L 0,288 L 0,160 L 256,160 L 256,32 L 448,226 L 256,416 L 256,288 ZM 512,416L 512,32L 480,32L 480,416z" data-tags="arrowstop-1-e" />
<glyph unicode="&#xe085;" d="M 192,224 L 192-32 L 320-32 L 320,224 L 448,224 L 254,416 L 64,224 L 192,224 ZM 64,480L 448,480L 448,448L 64,448z" data-tags="arrowstop-1-n" />
<glyph unicode="&#xe086;" d="M 374.856,193.52 L 236.48,345.76 L 352,448 L 32,448 L 32,167.784 L 137.144,259.704 L 278.856,108.192 L 160,0 L 480,0 L 480,288 L 374.856,193.52 Z" data-tags="arrow-2-se-nw" />
<glyph unicode="&#xe087;" d="M 286.48,342.856 L 134.24,204.48 L 32,320 L 32,0 L 312.216,0 L 220.296,105.144 L 371.808,246.856 L 480,128 L 480,448 L 192,448 L 286.48,342.856 Z" data-tags="arrow-2-ne-sw" />
<glyph unicode="&#xe088;" d="M 286.48,169.144 L 85.336,352 L 170.664,448 L 371.808,265.144 L 480,384 L 480,64 L 192,64 L 286.48,169.144 Z" data-tags="arrow-1-se" />
<glyph unicode="&#xe089;" d="M 278.848,169.144 L 479.992,352 L 394.664,448 L 193.52,265.144 L 85.328,384 L 85.328,64 L 373.328,64 L 278.848,169.144 Z" data-tags="arrow-1-sw" />
<glyph unicode="&#xe08a;" d="M 278.848,342.856 L 479.992,160 L 394.664,64 L 193.52,246.856 L 85.328,128 L 85.328,448 L 373.328,448 L 278.848,342.856 Z" data-tags="arrow-1-nw" />
<glyph unicode="&#xe08b;" d="M 286.48,342.856 L 85.336,160 L 170.664,64 L 371.808,246.856 L 480,128 L 480,448 L 192,448 L 286.48,342.856 Z" data-tags="arrow-1-ne" />
<glyph unicode="&#xe08c;" d="M 446.72,160 L 448,160 L 448,161.28 L 446.72,160 ZM 320,32 L 446.72,160 L 448,161.28 L 512,226 L 320,416 L 320,288 L 192,288 L 192,416 L 65.28,288 L 64,286.72 L 0,222 L 192,32 L 192,160 L 320,160 L 320,32 ZM 64,288 L 64,286.72 L 65.28,288 L 64,288 Z" data-tags="arrow-2-e-w" />
<glyph unicode="&#xe08d;" d="M 320,414.72 L 320,416 L 318.72,416 L 320,414.72 ZM 448,288 L 320,414.72 L 318.72,416 L 254,480 L 64,288 L 192,288 L 192,160 L 64,160 L 192,33.28 L 193.28,32 L 258-32 L 448,160 L 320,160 L 320,288 L 448,288 ZM 192,32 L 193.28,32 L 192,33.28 L 192,32 Z" data-tags="arrow-2-n-s" />
<glyph unicode="&#xe08e;" d="M 288,160 L 32,160 L 32,288 L 288,288 L 288,416 L 480,222 L 288,32 L 288,160 Z" data-tags="arrow-1-e" />
<glyph unicode="&#xe08f;" d="M 224,288 L 480,288 L 480,160 L 224,160 L 224,32 L 32,226 L 224,416 L 224,288 Z" data-tags="arrow-1-w" />
<glyph unicode="&#xe090;" d="M 192,192 L 192,448 L 320,448 L 320,192 L 448,192 L 254,0 L 64,192 L 192,192 Z" data-tags="arrow-1-s" />
<glyph unicode="&#xe091;" d="M 192,256 L 192,0 L 320,0 L 320,256 L 448,256 L 254,448 L 64,256 L 192,256 Z" data-tags="arrow-1-n" />
<glyph unicode="&#xe092;" d="M 256,480 L 64,320 L 64,256 L 256,416 L 448,256 L 448,320 L 256,480 ZM 256-32 L 448,128 L 448,192 L 256,32 L 64,192 L 64,128 L 256-32 Z" data-tags="carat-2-n-s" />
<glyph unicode="&#xe093;" d="M 0,224 L 160,32 L 224,32 L 64,224 L 224,416 L 160,416 L 0,224 ZM 512,224 L 352,416 L 288,416 L 448,224 L 288,32 L 352,32 L 512,224 Z" data-tags="carat-2-ew" />
<glyph unicode="&#xe094;" d="M 448,384 L 448,96 L 384,32 L 384,320 L 98,320 L 160,384 L 448,384 Z" data-tags="carat-1-ne" />
<glyph unicode="&#xe095;" d="M 97,383 L 385,383 L 449,319 L 161,319 L 161,33 L 97,95 L 97,383 Z" data-tags="carat-1-nw" />
<glyph unicode="&#xe096;" d="M 98,32 L 98,320 L 162,384 L 162,96 L 448,96 L 386,32 L 98,32 Z" data-tags="carat-1-sw" />
<glyph unicode="&#xe097;" d="M 448,32 L 448,320 L 384,384 L 384,96 L 98,96 L 160,32 L 448,32 Z" data-tags="carat-1-se" />
<glyph unicode="&#xe098;" d="M 256,96 L 448,288 L 448,352 L 256,160 L 64,352 L 64,288 L 256,96 Z" data-tags="carat-1-s" />
<glyph unicode="&#xe099;" d="M 256,352 L 448,160 L 448,96 L 256,288 L 64,96 L 64,160 L 256,352 Z" data-tags="carat-1-n" />
<glyph unicode="&#xe09a;" d="M 128,224 L 320,416 L 384,416 L 192,224 L 384,32 L 320,32 L 128,224 Z" data-tags="carat-1-w" />
<glyph unicode="&#xe09b;" d="M 384,224 L 192,416 L 128,416 L 320,224 L 128,32 L 192,32 L 384,224 Z" data-tags="carat-1-e" />
<glyph unicode="&#xe09c;" d="M 256,480 L 32,288 L 480,288 L 256,480 ZM 256-32 L 480,160 L 32,160 L 256-32 Z" data-tags="triangle-2-n-s" />
<glyph unicode="&#xe09d;" d="M 0,224 L 192,0 L 192,448 L 0,224 ZM 512,224 L 320,448 L 320,0 L 512,224 Z" data-tags="triangle-2-e-w" />
<glyph unicode="&#xe09e;" d="M 416,384 L 96,384 L 416,64 L 416,384 Z" data-tags="triangle-1-ne" />
<glyph unicode="&#xe09f;" d="M 96,384 L 416,384 L 96,64 L 96,384 Z" data-tags="triangle-1-nw" />
<glyph unicode="&#xe0a0;" d="M 96,64 L 96,384 L 416,64 L 96,64 Z" data-tags="triangle-1-sw" />
<glyph unicode="&#xe0a1;" d="M 416,64 L 416,384 L 96,64 L 416,64 Z" data-tags="triangle-1-se" />
<glyph unicode="&#xe0a2;" d="M 256,96 L 32,320 L 480,320 L 256,96 Z" data-tags="triangle-1-n" />
<glyph unicode="&#xe0a3;" d="M 112,240 L 336,464 L 336,16 L 112,240 Z" data-tags="triangle-1-w" />
<glyph unicode="&#xe0a4;" d="M 400,240 L 176,464 L 176,16 L 400,240 Z" data-tags="triangle-1-e" />
<glyph unicode="&#xe0a5;" d="M 256,96 L 32,320 L 480,320 L 256,96 Z" data-tags="triangle-1-s" />
<glyph unicode="&#xe0a6;" d="M 448,352 L 448,288 L 384,288 L 384,352 L 320,352 L 320,416 L 384,416 L 384,480 L 448,480 L 448,416 L 512,416 L 512,352 L 448,352 ZM 160,321.616 L 160,128 L 160,126.384 C 160.032,126.384 160.064,126.368 160.096,126.36 C 160.040,127.352 160,128 160,128 C 416,128 384,224 384,224 L 400,224 L 448,224 C 416,128 354.824,108.432 224,96 C 224,96 224,96 224,48 C 224,3.816 188.184-32 144-32 C 99.816-32 64,3.816 64,48 C 64,86.704 91.488,118.976 128,126.384 L 128,321.616 C 91.488,329.024 64,361.296 64,400 C 64,444.184 99.816,480 144,480 C 188.184,480 224,444.184 224,400 C 224,361.296 196.512,329.024 160,321.616 ZM 96,48 C 96,21.488 117.488,0 144,0 C 170.512,0 192,21.488 192,48 C 192,74.512 170.512,96 144,96 C 117.488,96 96,74.512 96,48 ZM 144,448 C 117.488,448 96,426.512 96,400 C 96,373.488 117.488,352 144,352 C 170.512,352 192,373.488 192,400 C 192,426.512 170.512,448 144,448 Z" data-tags="branch-new" />
<glyph unicode="&#xe0a7;" d="M 512,48 C 512,3.816 476.184-32 432-32 C 387.816-32 352,3.816 352,48 C 352,86.704 379.488,118.976 416,126.384 L 416,384 L 320,384 L 320,320 L 183.232,397 L 320,480 L 320,416 L 416,416 L 448,416 L 448,416 L 448,384 L 448,384 L 448,126.384 C 484.512,118.976 512,86.704 512,48 ZM 432,96 C 405.488,96 384,74.512 384,48 C 384,21.488 405.488,0 432,0 C 458.512,0 480,21.488 480,48 C 480,74.512 458.512,96 432,96 ZM 160,48 C 160,3.816 124.184-32 80-32 C 35.816-32 0,3.816 0,48 C 0,86.704 27.488,118.976 64,126.384 L 64,321.616 C 27.488,329.024 0,361.296 0,400 C 0,444.184 35.816,480 80,480 C 124.184,480 160,444.184 160,400 C 160,361.296 132.512,329.024 96,321.616 L 96,126.384 C 132.512,118.976 160,86.704 160,48 ZM 128,400 C 128,426.512 106.512,448 80,448 C 53.488,448 32,426.512 32,400 C 32,373.488 53.488,352 80,352 C 106.512,352 128,373.488 128,400 ZM 80,96 C 53.488,96 32,74.512 32,48 C 32,21.488 53.488,0 80,0 C 106.512,0 128,21.488 128,48 C 128,74.512 106.512,96 80,96 Z" data-tags="branch-merge" />
<glyph unicode="&#xe0a8;" d="M 400,256 C 355.816,256 320,291.816 320,336 C 320,380.184 355.816,416 400,416 C 444.184,416 480,380.184 480,336 C 480,291.816 444.184,256 400,256 ZM 400,384 C 373.488,384 352,362.512 352,336 C 352,309.488 373.488,288 400,288 C 426.512,288 448,309.488 448,336 C 448,362.512 426.512,384 400,384 ZM 203.448,101.224 C 216.136,87.072 224,68.512 224,48 C 224,3.816 188.184-32 144-32 C 99.816-32 64,3.816 64,48 C 64,86.704 91.488,118.976 128,126.384 L 128,321.616 C 91.488,329.024 64,361.296 64,400 C 64,444.184 99.816,480 144,480 C 188.184,480 224,444.184 224,400 C 224,361.296 196.512,329.024 160,321.616 L 160,128 L 160,126.384 C 160.032,126.384 160.064,126.368 160.096,126.36 C 160.040,127.352 160,128 160,128 C 416,128 384,256 384,256 L 400,256 L 416,256 C 414.32,119.624 289.48,109.4 203.448,101.224 ZM 192,400 C 192,426.512 170.512,448 144,448 C 117.488,448 96,426.512 96,400 C 96,373.488 117.488,352 144,352 C 170.512,352 192,373.488 192,400 ZM 144,96 C 117.488,96 96,74.512 96,48 C 96,21.488 117.488,0 144,0 C 170.512,0 192,21.488 192,48 C 192,74.512 170.512,96 144,96 Z" data-tags="branch" />
<glyph unicode="&#xe0a9;" d="M 384-32 L 384,480 L 512,480 L 512-32 L 384-32 ZM 480,448 L 416,448 L 416,384 L 480,384 L 480,448 ZM 480,320 L 416,320 L 416,256 L 480,256 L 480,320 ZM 480,192 L 416,192 L 416,128 L 480,128 L 480,192 ZM 480,64 L 416,64 L 416,0 L 480,0 L 480,64 ZM 160,192 L 352,192 L 352-32 L 160-32 L 160,192 ZM 160,480 L 352,480 L 352,256 L 160,256 L 160,480 ZM 0,480 L 128,480 L 128-32 L 0-32 L 0,480 ZM 32,0 L 96,0 L 96,64 L 32,64 L 32,0 ZM 32,128 L 96,128 L 96,192 L 32,192 L 32,128 ZM 32,256 L 96,256 L 96,320 L 32,320 L 32,256 ZM 32,384 L 96,384 L 96,448 L 32,448 L 32,384 Z" data-tags="video" />
<glyph unicode="&#xe0aa;" d="M 32,0 L 32,448 L 480,448 L 480,0 L 32,0 ZM 448,416 L 64,416 L 64,96 L 448,96 L 448,416 ZM 256,224 L 320,352 L 416,160 L 128,160 L 192,288 L 256,224 Z" data-tags="image" />
<glyph unicode="&#xe0ab;" d="M 192,480 C 298.032,480 384,394.032 384,288 C 384,251.376 373.752,217.152 355.936,188.064 L 512,32 L 448-32 L 291.936,124.064 C 262.848,106.248 228.624,96 192,96 C 85.968,96 0,181.968 0,288 C 0,394.032 85.968,480 192,480 ZM 192,403.2 C 128.376,403.2 76.8,351.624 76.8,288 C 76.8,224.376 128.376,172.816 192,172.816 C 255.624,172.816 307.184,224.376 307.184,288 C 307.184,351.624 255.624,403.2 192,403.2 Z" data-tags="search" />
<glyph unicode="&#xe0ac;" d="M 0,320 L 32,320 L 480,320 L 512,320 L 512,96 L 448,96 L 448-32 L 64-32 L 64,96 L 0,96 L 0,320 ZM 64,480 L 448,480 L 448,384 L 64,384 L 64,480 ZM 448,256 C 430.312,256 416,241.672 416,224 C 416,206.312 430.312,192 448,192 C 465.688,192 480,206.312 480,224 C 480,241.672 465.688,256 448,256 ZM 96,128 L 96,0 L 416,0 L 416,128 L 96,128 Z" data-tags="print" />
<glyph unicode="&#xe0ad;" d="M 96,448 L 416,448 L 416,160 L 96,160 L 96,448 ZM 0,480 L 0,32 L 128,32 L 128-32 L 192,32 L 256-32 L 256,32 L 448,32 L 448,480 L 0,480 ZM 64,128 L 416,128 L 416,64 L 256,64 L 256,96 L 128,96 L 128,64 L 64,64 L 64,128 Z" data-tags="note" />
<glyph unicode="&#xe0ae;" d="M 502.72,224 L 255,32 L 8.952,224 L 96,224 L 96,288 L 416,288 L 416,224 L 502.72,224 ZM 0,231.048 L 0,224 L 0-32 L 512-32 L 512,224 L 512,231.2 L 512,280.952 L 256,480 L 0,280.952 L 0,231.048 Z" data-tags="mail-open" />
<glyph unicode="&#xe0af;" d="M 0,295.048 L 0,32 L 512,32 L 512,295.2 L 255,96 L 0,295.048 ZM 0,416 L 0,359.048 L 256,160 L 512,359.048 L 512,416 L 0,416 Z" data-tags="mail-closed" />
<glyph unicode="&#xe0b0;" d="M 256-32 C 192,32 96,231.632 96,320 C 96,408.368 167.632,480 256,480 C 344.368,480 416,408.368 416,320 C 416,231.632 320,32 256-32 ZM 256,384 C 220.656,384 192,355.344 192,320 C 192,284.656 220.656,256 256,256 C 291.344,256 320,284.656 320,320 C 320,355.344 291.344,384 256,384 Z" data-tags="location" />
<glyph unicode="&#xe0b1;" d="M 448,192 L 448-32 L 384-32 L 384,128 L 288,128 L 288-32 L 64-32 L 64,192 L 0,192 L 96,300 L 96,480 L 160,480 L 160,372 L 256,480 L 512,192 L 448,192 ZM 192,96 L 128,96 L 128,32 L 192,32 L 192,96 Z" data-tags="home" />
<glyph unicode="&#xe0b2;" d="M 64,288 C 64,277.104 68.064,267.36 75.36,258.72 C 33.312,229.744 0,181.984 0,128 C 0,39.632 89.304-32 160-32 C 159.4-14.976 161.68,286.472 160,288 C 143.952,288 126.952,284.336 110.24,277.6 C 135.336,340.376 191.12,384 256,384 C 320.784,384 376.448,340.544 401.6,277.92 C 385.128,284.472 368.448,288 352.632,288 C 350.952,286.472 353.224-14.976 352.632-32 C 423.32-32 512.632,39.632 512.632,128 C 512.632,182.128 479.024,230.072 436.8,259.040 C 443.952,267.616 448,277.216 448,288 C 448,394.040 362.040,480 256,480 C 149.96,480 64,394.040 64,288 Z" data-tags="headphones" />
<glyph unicode="&#xe0b3;" d="M 32,448 L 32,416 L 0,416 L 0,0 L 480,0 L 508.48,256 L 448,256 L 128,256 L 120.96,256 L 64,32 L 32,32 L 96,288 L 128,288 L 128,352 L 448,352 L 448,288 L 512,288 L 512,290.368 L 512,416 L 256,416 L 256,448 L 32,448 Z" data-tags="folder-open" />
<glyph unicode="&#xe0b4;" d="M 0,448 L 0,416 L 0,384 L 0,0 L 512,0 L 512,320 L 96,320 L 96,64 L 64,64 L 64,320 L 64,352 L 96,352 L 512,352 L 512,416 L 224,416 L 224,448 L 0,448 Z" data-tags="folder-collapsed, folder-closed, folder" />
<glyph unicode="&#xe0b5;" d="M 64,352 L 448,352 L 448,320 L 64,320 L 64,352 ZM 64,224 L 448,224 L 448,192 L 64,192 L 64,224 ZM 512,32 L 512,416 L 0,416 L 0,32 L 512,32 ZM 64,160 L 256,160 L 256,128 L 64,128 L 64,160 ZM 64,288 L 448,288 L 448,256 L 64,256 L 64,288 Z" data-tags="document-b-landscape" />
<glyph unicode="&#xe0b6;" d="M 448,224 C 451,225 320,352 320,352 L 320,224 C 320,224 445,223 448,224 ZM 512,32 L 0,32 L 0,416 L 380,416 L 512,288 L 512,32 Z" data-tags="document-landscape" />
<glyph unicode="&#xe0b7;" d="M 256,416 C 257,419 384,288 384,288 L 256,288 C 256,288 255,413 256,416 ZM 64,480 L 64-32 L 448-32 L 448,348 L 320,480 L 64,480 Z" data-tags="document" />
<glyph unicode="&#xe0b8;" d="M 128,416 L 384,416 L 384,384 L 128,384 L 128,416 ZM 128,288 L 384,288 L 384,256 L 128,256 L 128,288 ZM 128,160 L 384,160 L 384,128 L 128,128 L 128,160 ZM 64,480 L 64-32 L 448-32 L 448,480 L 64,480 ZM 128,96 L 256,96 L 256,64 L 128,64 L 128,96 ZM 128,224 L 384,224 L 384,192 L 128,192 L 128,224 ZM 128,352 L 384,352 L 384,320 L 128,320 L 128,352 Z" data-tags="document-b" />
<glyph unicode="&#xe0b9;" d="M 96,352 L 416,352 L 416,320 L 96,320 L 96,352 ZM 96,224 L 288,224 L 288,192 L 96,192 L 96,224 ZM 0,448 L 0,96 L 320,96 L 320-26 L 484,96 L 512,96 L 512,448 L 0,448 ZM 96,288 L 416,288 L 416,256 L 96,256 L 96,288 Z" data-tags="comment" />
<glyph unicode="&#xe0ba;" d="M 32,416 L 480,416 L 480,128 L 481,128 L 352,29 L 353,128 L 32,128 L 32,416 ZM 0,448 L 0,96 L 320,96 L 320-26 L 484,96 L 512,96 L 512,448 L 0,448 ZM 96,352L 416,352L 416,320L 96,320zM 96,288L 416,288L 416,256L 96,256zM 96,224L 288,224L 288,192L 96,192z" data-tags="comment-b" />
<glyph unicode="&#xe0bb;" d="M 382.872,103 L 362.128,124.624 L 466.824,212.912 L 362.128,301.792 L 382.872,323.616 L 511.968,213.312 L 382.872,103 ZM 183.96,63.872 L 315.744,383.984 L 347.632,383.984 L 215.848,63.872 L 183.96,63.872 ZM 129.072,103 L -0.032,213.312 L 129.072,323.616 L 150.008,301.792 L 45.312,213.704 L 150.008,124.624 L 129.072,103 Z" data-tags="code" />
<glyph unicode="&#xe0bc;" d="M 512,64 L 352,197.336 L 352,64 L 0,64 L 0,384 L 352,384 L 352,277.336 L 512,384 L 512,64 Z" data-tags="videocamera" />
<glyph unicode="&#xe0bd;" d="M 0,32 L 0,384 L 32,384 L 32,416 L 256,416 L 256,384 L 512,384 L 512,32 L 0,32 ZM 320,320 C 249.304,320 192,262.696 192,192 C 192,121.312 249.304,64 320,64 C 390.688,64 448,121.312 448,192 C 448,262.696 390.688,320 320,320 ZM 320,128 C 284.656,128 256,156.656 256,192 C 256,227.344 284.656,256 320,256 C 355.344,256 384,227.344 384,192 C 384,156.656 355.344,128 320,128 Z" data-tags="camera" />
<glyph unicode="&#xe0be;" d="M 32,352 L 480,352 L 480,320 L 32,320 L 32,352 ZM 0,416 L 0-32 L 512-32 L 512,416 L 448,416 L 448,480 L 384,480 L 384,416 L 128,416 L 128,480 L 64,480 L 64,416 L 0,416 ZM 32,224 L 128,224 L 128,128 L 32,128 L 32,224 Z" data-tags="calendar" />
<glyph unicode="&#xe0bf;" d="M 64,96 L 224,288 L 290.064,220.648 L 419.6,286.624 L 290.064,96 L 221.816,170.592 L 64,96 ZM 512,288 L 448,288 L 448,352 L 0,352 L 0,64 L 448,64 L 448,128 L 512,128 L 512,288 Z" data-tags="battery-charge" />
<glyph unicode="&#xe0c0;" d="M 64,288 L 384,288 L 384,128 L 64,128 L 64,288 ZM 512,288 L 448,288 L 448,352 L 0,352 L 0,64 L 448,64 L 448,128 L 512,128 L 512,288 Z" data-tags="battery-3" />
<glyph unicode="&#xe0c1;" d="M 64,288 L 256,288 L 256,128 L 64,128 L 64,288 ZM 512,288 L 448,288 L 448,352 L 0,352 L 0,64 L 448,64 L 448,128 L 512,128 L 512,288 Z" data-tags="battery-2" />
<glyph unicode="&#xe0c2;" d="M 64,288 L 128,288 L 128,128 L 64,128 L 64,288 ZM 512,288 L 448,288 L 448,352 L 0,352 L 0,64 L 448,64 L 448,128 L 512,128 L 512,288 Z" data-tags="battery-1" />
<glyph unicode="&#xe0c3;" d="M 512,288 L 448,288 L 448,352 L 0,352 L 0,64 L 448,64 L 448,128 L 512,128 L 512,288 Z" data-tags="battery-0" />
<glyph unicode="&#xe0c4;" d="M 145.12,320 C 167.248,358.256 208.624,384 256,384 C 303.376,384 344.752,358.256 366.88,320 L 437.12,320 C 410.76,394.576 339.6,448 256,448 C 172.4,448 101.24,394.576 74.88,320 L 0,320 C -3,320 127,189 128,192 C 129,195 256,320 256,320 L 145.12,320 ZM 363.232,127.976 C 340.552,89.72 298.16,63.984 249.608,63.984 C 201.056,63.984 158.656,89.72 135.984,127.976 L 64,127.976 C 91.008,53.416 163.936,0 249.608,0 C 335.28,0 408.2,53.416 435.216,127.976 L 511.952,127.976 C 515.024,127.976 381.8,258.944 380.776,255.952 C 379.752,252.952 249.608,127.976 249.608,127.976 L 363.232,127.976 Z" data-tags="refresh" />
<glyph unicode="&#xe0c5;" d="M 320,64 L 320,192 L 128,192 L 128,288 L 0,128 L 128-32 L 128,64 L 320,64 ZM 192,384 L 192,256 L 384,256 L 384,160 L 512,320 L 384,480 L 384,384 L 192,384 Z" data-tags="transfer-e-w" />
<glyph unicode="&#xe0c6;" d="M 96,160 L 224,160 L 224,352 L 320,352 L 160,480 L 0,352 L 96,352 L 96,160 ZM 416,288 L 288,288 L 288,96 L 192,96 L 352-32 L 512,96 L 416,96 L 416,288 Z" data-tags="transfer-n-s" />
<glyph unicode="&#xe0c7;" d="M 0,480 L 128,288 L 192,288 L 192-32 L 225-32 L 320,97 L 320,288 L 384,288 L 512,480 L 0,480 Z" data-tags="filter" />
<glyph unicode="&#xe0c8;" d="M 96,448 L 416,448 L 416,0 L 96,0 L 96,448 ZM 64,480 L 64-32 L 448-32 L 448,480 L 64,480 ZM 128,352L 192,352L 192,289.2L 128,289.2zM 128,256L 192,256L 192,193.2L 128,193.2zM 128,160L 192,160L 192,97.2L 128,97.2zM 224,336L 384,336L 384,304L 224,304zM 224,240L 384,240L 384,208L 224,208zM 224,144L 384,144L 384,112L 224,112z" data-tags="list" />
<glyph unicode="&#x20;" horiz-adv-x="256" />
</font>
</defs>
</svg>
